<svg id="Layer_1" data-name="Layer 1" xmlns="http://www.w3.org/2000/svg" viewBox="0 0 500 500"><defs><style>.cls-1,.cls-3,.cls-4,.cls-6{fill:none;stroke-width:5px;}.cls-1{stroke:#1dd7db;}.cls-1,.cls-3,.cls-6{stroke-linecap:round;}.cls-1,.cls-6{stroke-linejoin:round;}.cls-2{fill:#fbb03b;}.cls-3,.cls-4,.cls-6{stroke:#32324d;}.cls-3,.cls-4{stroke-miterlimit:10;}.cls-5{fill:#32324d;}</style></defs><title>Artboard 1 copy 3 複本</title><polyline class="cls-1" points="430.95 312.52 354.95 397.52 317.95 360.52 287.95 390.52 252.95 337.52 210.95 416.52"/><polyline class="cls-1" points="411.95 314.52 431.95 311.52 428.95 330.52"/><path class="cls-2" d="M236.14,67.67a13.16,13.16,0,0,1,13.14,13.14v1.72a13.16,13.16,0,0,1-13.14,13.14H194.77a13.16,13.16,0,0,1-13.15-13.14V80.81a13.16,13.16,0,0,1,13.15-13.14h41.37m0-5H194.77a18.2,18.2,0,0,0-18.15,18.14v1.72a18.2,18.2,0,0,0,18.15,18.14h41.37a18.2,18.2,0,0,0,18.14-18.14V80.81a18.2,18.2,0,0,0-18.14-18.14Z"/><path class="cls-2" d="M172.68,158.92a6.74,6.74,0,0,1,6.74,6.74v14.52a6.74,6.74,0,0,1-6.74,6.74H116.16a6.74,6.74,0,0,1-6.74-6.74V165.66a6.74,6.74,0,0,1,6.74-6.74h56.52m0-5H116.16a11.77,11.77,0,0,0-11.74,11.74v14.52a11.77,11.77,0,0,0,11.74,11.74h56.52a11.77,11.77,0,0,0,11.74-11.74V165.66a11.77,11.77,0,0,0-11.74-11.74Z"/><path class="cls-2" d="M310.71,158.92a6.74,6.74,0,0,1,6.74,6.74v14.52a6.74,6.74,0,0,1-6.74,6.74H254.19a6.74,6.74,0,0,1-6.74-6.74V165.66a6.74,6.74,0,0,1,6.74-6.74h56.52m0-5H254.19a11.77,11.77,0,0,0-11.74,11.74v14.52a11.77,11.77,0,0,0,11.74,11.74h56.52a11.77,11.77,0,0,0,11.74-11.74V165.66a11.77,11.77,0,0,0-11.74-11.74Z"/><path class="cls-2" d="M111.5,252.17a6.75,6.75,0,0,1,6.73,6.74v14.53a6.74,6.74,0,0,1-6.73,6.73H75a6.75,6.75,0,0,1-6.74-6.73V258.91A6.76,6.76,0,0,1,75,252.17H111.5m0-5H75a11.78,11.78,0,0,0-11.74,11.74v14.53A11.78,11.78,0,0,0,75,285.17H111.5a11.77,11.77,0,0,0,11.73-11.73V258.91a11.78,11.78,0,0,0-11.73-11.74Z"/><path class="cls-3" d="M109.5,362H72.61c-20.36,0-36.86-17.51-36.86-39.12V66.9c0-21.6,16.5-39.12,36.86-39.12H313.8c20.36,0,36.86,17.52,36.86,39.12V221.16"/><polyline class="cls-4" points="216.7 98.52 216.7 130.32 144.77 130.32 144.77 156.19"/><polyline class="cls-4" points="282.45 156.54 282.45 130.67 216.7 130.32"/><polyline class="cls-4" points="144.95 188.42 144.95 219.33 94 219.33 94 249.16"/><line class="cls-3" x1="144.95" y1="219.33" x2="184.95" y2="219.53"/><path class="cls-5" d="M414.25,257.54a45.05,45.05,0,0,1,45,45V423a45.05,45.05,0,0,1-45,45H195a45,45,0,0,1-45-45V302.54a45,45,0,0,1,45-45h219.3m0-5H195a50,50,0,0,0-50,50V423a50,50,0,0,0,50,50h219.3a50,50,0,0,0,50-50V302.54a50,50,0,0,0-50-50Z"/><polyline class="cls-3" points="194.95 301.7 194.95 430.91 408.95 430.91"/><rect class="cls-4" x="399.46" y="26.98" width="22.98" height="174.23"/><line class="cls-4" x1="422.44" y1="52.29" x2="399.46" y2="52.29"/><polyline class="cls-6" points="399.46 203.93 410.95 234.28 422.44 203.93"/><line class="cls-4" x1="410.95" y1="52.29" x2="410.95" y2="201.21"/></svg>