<svg xmlns="http://www.w3.org/2000/svg" xmlns:xlink="http://www.w3.org/1999/xlink" viewBox="0 0 1178.47 322.34"><defs><style>.cls-1{fill:url(#未命名漸層_15);}.cls-2{fill:url(#未命名漸層_15-2);}.cls-3{fill:url(#未命名漸層_15-3);}.cls-4{fill:url(#未命名漸層_15-4);}.cls-5{fill:url(#未命名漸層_15-5);}.cls-6{fill:url(#未命名漸層_15-6);}.cls-7{fill:url(#未命名漸層_15-7);}.cls-8{fill:url(#未命名漸層_15-8);}.cls-9{fill:url(#未命名漸層_15-9);}.cls-10{fill:url(#未命名漸層_15-10);}.cls-11{fill:url(#未命名漸層_15-11);}.cls-12{fill:url(#未命名漸層_15-12);}.cls-13{fill:url(#未命名漸層_15-13);}.cls-14{fill:url(#未命名漸層_15-14);}</style><linearGradient id="未命名漸層_15" y1="73.16" x2="157.34" y2="73.16" gradientUnits="userSpaceOnUse"><stop offset="0" stop-color="#00b4f8"/><stop offset="1" stop-color="#0074d8"/></linearGradient><linearGradient id="未命名漸層_15-2" x1="186.84" y1="73.16" x2="284.98" y2="73.16" xlink:href="#未命名漸層_15"/><linearGradient id="未命名漸層_15-3" x1="309.56" y1="73.16" x2="441.53" y2="73.16" xlink:href="#未命名漸層_15"/><linearGradient id="未命名漸層_15-4" x1="462.38" y1="73.16" x2="595.92" y2="73.16" xlink:href="#未命名漸層_15"/><linearGradient id="未命名漸層_15-5" x1="624.05" y1="73.16" x2="711.57" y2="73.16" xlink:href="#未命名漸層_15"/><linearGradient id="未命名漸層_15-6" x1="721.01" y1="73.16" x2="871.27" y2="73.16" xlink:href="#未命名漸層_15"/><linearGradient id="未命名漸層_15-7" x1="892.11" y1="73.16" x2="1024.08" y2="73.16" xlink:href="#未命名漸層_15"/><linearGradient id="未命名漸層_15-8" x1="1044.93" y1="73.16" x2="1178.47" y2="73.16" xlink:href="#未命名漸層_15"/><linearGradient id="未命名漸層_15-9" y1="249.18" x2="128.43" y2="249.18" xlink:href="#未命名漸層_15"/><linearGradient id="未命名漸層_15-10" x1="150.46" y1="249.18" x2="248.6" y2="249.18" xlink:href="#未命名漸層_15"/><linearGradient id="未命名漸層_15-11" x1="262.76" y1="249.18" x2="363.26" y2="249.18" xlink:href="#未命名漸層_15"/><linearGradient id="未命名漸層_15-12" x1="385.68" y1="249.18" x2="416.36" y2="249.18" xlink:href="#未命名漸層_15"/><linearGradient id="未命名漸層_15-13" x1="436.81" y1="249.18" x2="570.35" y2="249.18" xlink:href="#未命名漸層_15"/><linearGradient id="未命名漸層_15-14" x1="597.3" y1="249.18" x2="729.27" y2="249.18" xlink:href="#未命名漸層_15"/></defs><title>工作區域 14</title><g id="圖層_3" data-name="圖層 3"><path class="cls-1" d="M0,3.54H46.42L78.47,94.4h.4L111.12,3.54h46.22V142.79H126.66V36h-.39L89.68,142.79H66.28L31.07,36h-.39v106.8H0Z"/><path class="cls-2" d="M186.84,3.54h94.6V31.86H217.52v26H277.9V86.14H217.52v28.33H285v28.32H186.84Z"/><path class="cls-3" d="M309.56,3.54h41.7l59.2,96.77h.39V3.54h30.68V142.79H401.41L340.64,43.66h-.39v99.13H309.56Z"/><path class="cls-4" d="M595.92,133a111,111,0,0,1-28.32,10.23,143.63,143.63,0,0,1-30.09,3.15,85.74,85.74,0,0,1-30.09-5.12,68.75,68.75,0,0,1-23.8-14.65A66.42,66.42,0,0,1,468,103.45a78.77,78.77,0,0,1-5.6-30.29A78.72,78.72,0,0,1,468,42.88a66.42,66.42,0,0,1,15.64-23.11,68.92,68.92,0,0,1,23.8-14.66A86,86,0,0,1,537.51,0a111.72,111.72,0,0,1,30.78,4A60.27,60.27,0,0,1,593,17.9L571.34,41.5a43.33,43.33,0,0,0-14.16-9.84q-7.87-3.33-19.67-3.34a45.72,45.72,0,0,0-17.8,3.34A40.09,40.09,0,0,0,506,41a41,41,0,0,0-8.75,14.26,51.3,51.3,0,0,0-3.05,17.89,51.12,51.12,0,0,0,3.05,18A41.23,41.23,0,0,0,506,105.32a39.93,39.93,0,0,0,13.67,9.34,45.54,45.54,0,0,0,17.8,3.35,58.55,58.55,0,0,0,17.31-2.27,64.1,64.1,0,0,0,11.6-4.62V88.5h-25V60.18h54.48Z"/><path class="cls-5" d="M624.05,3.54h30.68V114.47h56.84v28.32H624.05Z"/><path class="cls-6" d="M721,73.16a78.72,78.72,0,0,1,5.6-30.28,66.42,66.42,0,0,1,15.64-23.11,68.92,68.92,0,0,1,23.8-14.66,91.15,91.15,0,0,1,60.18,0A68.92,68.92,0,0,1,850,19.77a66.4,66.4,0,0,1,15.63,23.11,78.54,78.54,0,0,1,5.61,30.28,78.59,78.59,0,0,1-5.61,30.29A66.4,66.4,0,0,1,850,126.56a68.75,68.75,0,0,1-23.8,14.65,91,91,0,0,1-60.18,0,68.75,68.75,0,0,1-23.8-14.65,66.42,66.42,0,0,1-15.64-23.11A78.77,78.77,0,0,1,721,73.16Zm31.86,0a50.9,50.9,0,0,0,3,18,41.23,41.23,0,0,0,8.75,14.16,39.93,39.93,0,0,0,13.67,9.34,49,49,0,0,0,35.6,0,40,40,0,0,0,13.67-9.34,41.39,41.39,0,0,0,8.75-14.16,51.12,51.12,0,0,0,3-18,51.3,51.3,0,0,0-3-17.89A41.17,41.17,0,0,0,827.61,41a40.19,40.19,0,0,0-13.67-9.35,49.1,49.1,0,0,0-35.6,0A40.09,40.09,0,0,0,764.67,41a41,41,0,0,0-8.75,14.26A51.07,51.07,0,0,0,752.87,73.16Z"/><path class="cls-7" d="M892.11,3.54h41.7L993,100.31h.39V3.54h30.68V142.79H984L923.19,43.66h-.4v99.13H892.11Z"/><path class="cls-8" d="M1178.47,133a111.11,111.11,0,0,1-28.32,10.23,143.63,143.63,0,0,1-30.09,3.15,85.7,85.7,0,0,1-30.09-5.12,68.75,68.75,0,0,1-23.8-14.65,66.42,66.42,0,0,1-15.64-23.11,78.77,78.77,0,0,1-5.6-30.29,78.72,78.72,0,0,1,5.6-30.28,66.42,66.42,0,0,1,15.64-23.11A68.92,68.92,0,0,1,1090,5.11,85.92,85.92,0,0,1,1120.06,0a111.72,111.72,0,0,1,30.78,4,60.27,60.27,0,0,1,24.68,13.87l-21.63,23.6a43.33,43.33,0,0,0-14.16-9.84q-7.87-3.33-19.67-3.34a45.72,45.72,0,0,0-17.8,3.34A40.09,40.09,0,0,0,1088.59,41a41,41,0,0,0-8.75,14.26,51.07,51.07,0,0,0-3,17.89,50.9,50.9,0,0,0,3,18,41.23,41.23,0,0,0,8.75,14.16,39.93,39.93,0,0,0,13.67,9.34,45.54,45.54,0,0,0,17.8,3.35,58.6,58.6,0,0,0,17.31-2.27,64.1,64.1,0,0,0,11.6-4.62V88.5h-25V60.18h54.48Z"/><path class="cls-9" d="M0,179.55H46a131.44,131.44,0,0,1,31.77,3.74A72.64,72.64,0,0,1,104,195.38a59.22,59.22,0,0,1,17.8,21.74q6.59,13.38,6.59,32.45,0,16.92-6.39,29.8A64,64,0,0,1,104.83,301a76.07,76.07,0,0,1-25,13.28,97.18,97.18,0,0,1-29.7,4.52H0ZM30.68,290.48H46.61a85.37,85.37,0,0,0,19.77-2.17,42.23,42.23,0,0,0,15.83-7.17A34.41,34.41,0,0,0,92.73,268q3.84-8.16,3.84-20a38.88,38.88,0,0,0-3.84-17.8,35.58,35.58,0,0,0-10.32-12.49,45.24,45.24,0,0,0-15.24-7.38,67.71,67.71,0,0,0-18.39-2.46H30.68Z"/><path class="cls-10" d="M150.46,179.55h94.6v28.32H181.14v26h60.38v28.32H181.14v28.32H248.6V318.8H150.46Z"/><path class="cls-11" d="M342,213.58a21.82,21.82,0,0,0-10.13-7,36.3,36.3,0,0,0-12.1-2.27,31.94,31.94,0,0,0-6.88.79,26.83,26.83,0,0,0-6.69,2.46,14.53,14.53,0,0,0-5.11,4.42,11.24,11.24,0,0,0-2,6.69,11.08,11.08,0,0,0,4.72,9.64,44.56,44.56,0,0,0,11.9,5.7q7.17,2.37,15.44,4.72a64.09,64.09,0,0,1,15.44,6.69,36.6,36.6,0,0,1,11.9,11.6q4.71,7.29,4.72,19.47a44.83,44.83,0,0,1-4.33,20.26,41,41,0,0,1-11.7,14.36,50,50,0,0,1-17.11,8.46,75.46,75.46,0,0,1-20.56,2.75,74.66,74.66,0,0,1-25.17-4.13,62.94,62.94,0,0,1-21.63-13.37l21.83-24a31.81,31.81,0,0,0,11.9,9.74,33.39,33.39,0,0,0,22.42,2.55,24.69,24.69,0,0,0,6.88-2.65,14.89,14.89,0,0,0,4.92-4.53,11.29,11.29,0,0,0,1.87-6.49,11.79,11.79,0,0,0-4.82-9.93,44.6,44.6,0,0,0-12.1-6.19q-7.28-2.56-15.73-5.12a70.17,70.17,0,0,1-15.74-6.88,37.85,37.85,0,0,1-12.09-11.41q-4.83-7.08-4.82-18.68a41.83,41.83,0,0,1,4.42-19.67,42.61,42.61,0,0,1,11.81-14.16,51.39,51.39,0,0,1,17-8.56A69.61,69.61,0,0,1,320.38,176a78.13,78.13,0,0,1,22.82,3.35,52.56,52.56,0,0,1,19.86,11.21Z"/><path class="cls-12" d="M385.68,179.55h30.68V318.8H385.68Z"/><path class="cls-13" d="M570.35,309A110.57,110.57,0,0,1,542,319.19a143.63,143.63,0,0,1-30.09,3.15,86,86,0,0,1-30.09-5.11,68.77,68.77,0,0,1-23.8-14.66,66.17,66.17,0,0,1-15.63-23.11,84.55,84.55,0,0,1,0-60.57,66.26,66.26,0,0,1,15.63-23.11,68.9,68.9,0,0,1,23.8-14.65A85.78,85.78,0,0,1,511.94,176a111.72,111.72,0,0,1,30.78,4,60.27,60.27,0,0,1,24.68,13.87l-21.63,23.6a43.15,43.15,0,0,0-14.16-9.83q-7.87-3.35-19.67-3.35a45.54,45.54,0,0,0-17.8,3.35A39.93,39.93,0,0,0,480.47,217a41,41,0,0,0-8.75,14.26,54.32,54.32,0,0,0,0,35.89,41.23,41.23,0,0,0,8.75,14.16,39.79,39.79,0,0,0,13.67,9.34,45.36,45.36,0,0,0,17.8,3.35,58.57,58.57,0,0,0,17.31-2.26,64.77,64.77,0,0,0,11.6-4.63V264.52h-25V236.2h54.48Z"/><path class="cls-14" d="M597.3,179.55H639l59.2,96.77h.4V179.55h30.68V318.8H689.15l-60.78-99.13H628V318.8H597.3Z"/></g></svg>