<svg xmlns="http://www.w3.org/2000/svg" xmlns:xlink="http://www.w3.org/1999/xlink" viewBox="0 0 500 480.77"><defs><style>.cls-1{fill:url(#未命名漸層_15);}.cls-2{fill:url(#未命名漸層_15-2);}</style><linearGradient id="未命名漸層_15" y1="240.38" x2="332.84" y2="240.38" gradientUnits="userSpaceOnUse"><stop offset="0" stop-color="#00b4f8"/><stop offset="1" stop-color="#0074d8"/></linearGradient><linearGradient id="未命名漸層_15-2" x1="167.16" y1="240.38" x2="500" y2="240.38" xlink:href="#未命名漸層_15"/></defs><title>工作區域 15</title><g id="圖層_3" data-name="圖層 3"><path class="cls-1" d="M14.79,480.77A14.79,14.79,0,0,1,0,466V166.42C0,74.66,74.66,0,166.42,0S332.84,74.66,332.84,166.42V466a14.79,14.79,0,0,1-14.79,14.79Zm281.07-37V166.42a129.44,129.44,0,0,0-258.88,0V443.79Z"/><path class="cls-2" d="M182,480.77A14.79,14.79,0,0,1,167.16,466V166.42C167.16,74.66,241.82,0,333.58,0S500,74.66,500,166.42V466a14.79,14.79,0,0,1-14.79,14.79Zm281.07-37V166.42a129.44,129.44,0,0,0-258.88,0V443.79Z"/></g></svg>