<svg id="Layer_1" data-name="Layer 1" xmlns="http://www.w3.org/2000/svg" viewBox="0 0 500 500"><defs><style>.cls-1{fill:#32324d;}.cls-2,.cls-4,.cls-5,.cls-6{fill:none;stroke-width:5px;}.cls-2{stroke:#1dd7db;stroke-dasharray:15 7;}.cls-2,.cls-5,.cls-6{stroke-miterlimit:10;}.cls-3{font-size:51.74px;fill:#1dd7db;font-family:AvenirNext-DemiBold, Avenir Next;font-weight:700;}.cls-4{stroke:#fbb03b;stroke-linejoin:round;}.cls-4,.cls-6{stroke-linecap:round;}.cls-5,.cls-6{stroke:#32324d;}</style></defs><title>Artboard 1 copy 4 複本</title><circle class="cls-1" cx="122.28" cy="42.11" r="10.78"/><circle class="cls-1" cx="373.71" cy="42.11" r="10.78"/><circle class="cls-1" cx="60.13" cy="355.68" r="10.78"/><circle class="cls-1" cx="60.13" cy="104.25" r="10.78"/><line class="cls-2" x1="325.93" y1="232.32" x2="421.49" y2="232.32"/><line class="cls-2" x1="74.5" y1="232.32" x2="173.84" y2="232.32"/><text class="cls-3" transform="translate(189.59 247.79)">50px</text><path class="cls-4" d="M451.06,431.84l-18.57,16-18.58,16,11.22,13.05,18.58-16,18.58-16Z"/><path class="cls-4" d="M444.66,424.41l-18.58,16-18.57,16L370,441.08l-24.57-56.57L332.2,354l7.5-6.46,22,25.52,31.54,36.62a6.67,6.67,0,0,0,1.63,4.85,6.76,6.76,0,1,0,5.7-11.16l-31.38-36.43L347,341.21l7.5-6.46,29.31,18.33,51.23,32Z"/><polyline class="cls-5" points="373.71 42.11 362.93 42.11 262.36 42.11"/><polyline class="cls-5" points="233.62 42.11 133.06 42.11 122.28 42.11"/><polyline class="cls-5" points="60.13 104.25 60.13 115.03 60.13 215.6"/><polyline class="cls-5" points="60.13 244.34 60.13 344.91 60.13 355.68"/><path class="cls-6" d="M329,399.25a185.27,185.27,0,0,1-66.65,18V403.46H233.62v13.82c-91.7-7.07-165.86-81.23-172.94-172.94H74.5V215.6H60.68c7.08-91.71,81.24-165.87,172.94-172.94V56.48h28.74V42.66c91.71,7.07,165.87,81.23,173,172.94H421.49v28.74h13.82a186.64,186.64,0,0,1-36,96.42"/><rect class="cls-5" x="233.62" y="27.73" width="28.74" height="28.75"/><rect class="cls-5" x="233.62" y="403.46" width="28.74" height="28.74"/><rect class="cls-5" x="45.76" y="215.6" width="28.74" height="28.74"/><rect class="cls-5" x="421.49" y="215.6" width="28.74" height="28.74"/></svg>