<svg id="圖層_1" data-name="圖層 1" xmlns="http://www.w3.org/2000/svg" xmlns:xlink="http://www.w3.org/1999/xlink" viewBox="0 0 913.44 222.28"><defs><style>.cls-1{fill:#fff;}.cls-2{fill:url(#未命名漸層_21);}.cls-3{fill:url(#未命名漸層_21-2);}.cls-4{fill:url(#未命名漸層_21-3);}.cls-5{fill:url(#未命名漸層_21-4);}.cls-6{fill:url(#未命名漸層_21-5);}.cls-7{fill:url(#未命名漸層_21-6);}.cls-8{fill:url(#未命名漸層_21-7);}.cls-9{fill:url(#未命名漸層_21-8);}.cls-10{fill:url(#未命名漸層_21-9);}.cls-11{fill:url(#未命名漸層_21-10);}.cls-12{fill:url(#未命名漸層_21-11);}.cls-13{fill:url(#未命名漸層_21-12);}.cls-14{fill:url(#未命名漸層_21-13);}.cls-15{fill:url(#未命名漸層_21-14);}.cls-16{fill:url(#未命名漸層_21-15);}.cls-17{fill:url(#未命名漸層_21-16);}</style><linearGradient id="未命名漸層_21" x1="-62.8" y1="-19.94" x2="1158.44" y2="369.44" gradientUnits="userSpaceOnUse"><stop offset="0" stop-color="#3dc4ed"/><stop offset="0.15" stop-color="#3bbdee"/><stop offset="0.38" stop-color="#36aaf0"/><stop offset="0.65" stop-color="#2d8af4"/><stop offset="0.95" stop-color="#205ef9"/><stop offset="1" stop-color="#1e55fa"/></linearGradient><linearGradient id="未命名漸層_21-2" x1="-55.07" y1="-44.16" x2="1166.17" y2="345.22" xlink:href="#未命名漸層_21"/><linearGradient id="未命名漸層_21-3" x1="-45.85" y1="-73.07" x2="1175.39" y2="316.31" xlink:href="#未命名漸層_21"/><linearGradient id="未命名漸層_21-4" x1="-31.83" y1="-117.07" x2="1189.41" y2="272.31" xlink:href="#未命名漸層_21"/><linearGradient id="未命名漸層_21-5" x1="-22.7" y1="-145.68" x2="1198.53" y2="243.7" xlink:href="#未命名漸層_21"/><linearGradient id="未命名漸層_21-6" x1="-15.49" y1="-174.59" x2="1205.75" y2="214.79" xlink:href="#未命名漸層_21"/><linearGradient id="未命名漸層_21-7" x1="6.42" y1="-237.01" x2="1227.65" y2="152.37" xlink:href="#未命名漸層_21"/><linearGradient id="未命名漸層_21-8" x1="-115.65" y1="134.83" x2="1105.59" y2="524.21" xlink:href="#未命名漸層_21"/><linearGradient id="未命名漸層_21-9" x1="-106.65" y1="106.62" x2="1114.58" y2="496" xlink:href="#未命名漸層_21"/><linearGradient id="未命名漸層_21-10" x1="-99.25" y1="83.4" x2="1121.99" y2="472.78" xlink:href="#未命名漸層_21"/><linearGradient id="未命名漸層_21-11" x1="-89.56" y1="56.15" x2="1131.68" y2="445.54" xlink:href="#未命名漸層_21"/><linearGradient id="未命名漸層_21-12" x1="-83.12" y1="39.07" x2="1138.12" y2="428.45" xlink:href="#未命名漸層_21"/><linearGradient id="未命名漸層_21-13" x1="-77.34" y1="14.69" x2="1143.9" y2="404.07" xlink:href="#未命名漸層_21"/><linearGradient id="未命名漸層_21-14" x1="-70.98" y1="-5.27" x2="1150.26" y2="384.12" xlink:href="#未命名漸層_21"/><linearGradient id="未命名漸層_21-15" x1="-62.21" y1="-23.36" x2="1159.03" y2="366.02" xlink:href="#未命名漸層_21"/><linearGradient id="未命名漸層_21-16" x1="-58.83" y1="-43.38" x2="1162.41" y2="346" xlink:href="#未命名漸層_21"/></defs><title>工作區域 72</title><path class="cls-1" d="M0,2.16H23.64L45.72,62.52h.36L67.92,2.16H91.68v85h-15V18.84h-.24L50.64,87.12H40.08L14.64,18.84H14.4V87.12H0Z"/><path class="cls-2" d="M111.6,2.16h56.28v13.2H126.72V37h39V49.68h-39v24H170V87.12H111.6Z"/><path class="cls-3" d="M186,2.16h20l39.48,63.6h.24V2.16h15.12v85h-19.2L201.36,21.48h-.24V87.12H186Z"/><path class="cls-4" d="M355.2,82.68A66.08,66.08,0,0,1,341,87.54a81.76,81.76,0,0,1-17.82,1.74A51.76,51.76,0,0,1,304.32,86a43.08,43.08,0,0,1-14.64-9.24,41.92,41.92,0,0,1-9.54-14.16,46.88,46.88,0,0,1-3.42-18.18A46.12,46.12,0,0,1,280.26,26,41,41,0,0,1,290,12a43.15,43.15,0,0,1,14.58-8.88A52,52,0,0,1,322.8,0a56.53,56.53,0,0,1,18.66,2.94,38,38,0,0,1,13.62,7.74L344.64,22a25.72,25.72,0,0,0-9.06-6.12,31.52,31.52,0,0,0-12.66-2.52,30,30,0,0,0-12.18,2.4,27.33,27.33,0,0,0-9.3,6.6,29.84,29.84,0,0,0-5.94,9.84,34.81,34.81,0,0,0-2.1,12.24,36,36,0,0,0,2.1,12.54,29.2,29.2,0,0,0,6,9.9A27,27,0,0,0,311,73.38a32.47,32.47,0,0,0,12.66,2.34,43.79,43.79,0,0,0,16.92-3V51.12H322.68V38.64H355.2Z"/><path class="cls-1" d="M374.76,2.16h15.12V73.68H426V87.12H374.76Z"/><path class="cls-5" d="M429.6,44.4A47.53,47.53,0,0,1,433,26a40.44,40.44,0,0,1,9.48-14,41.79,41.79,0,0,1,14.4-8.88A51.49,51.49,0,0,1,475.08,0a52.34,52.34,0,0,1,18.36,3.12A42.6,42.6,0,0,1,508,12a40,40,0,0,1,9.54,14,47.53,47.53,0,0,1,3.42,18.42,46.88,46.88,0,0,1-3.42,18.18A41.92,41.92,0,0,1,508,76.74,43.43,43.43,0,0,1,493.44,86a49.78,49.78,0,0,1-18.36,3.3A49,49,0,0,1,456.9,86,41.9,41.9,0,0,1,433,62.58,46.88,46.88,0,0,1,429.6,44.4Zm16.44,0a36,36,0,0,0,2.1,12.54,29,29,0,0,0,6,9.9,27.36,27.36,0,0,0,9.24,6.54,29.1,29.1,0,0,0,11.82,2.34,29.56,29.56,0,0,0,11.88-2.34,27.4,27.4,0,0,0,9.3-6.54,29.36,29.36,0,0,0,6-9.9,36.26,36.26,0,0,0,2.1-12.54,35,35,0,0,0-2.1-12.24,29.84,29.84,0,0,0-5.94-9.84,27.58,27.58,0,0,0-9.24-6.6,29.26,29.26,0,0,0-12-2.4,28.78,28.78,0,0,0-11.94,2.4,27.64,27.64,0,0,0-9.18,6.6,29.51,29.51,0,0,0-5.94,9.84A34.81,34.81,0,0,0,446,44.4Z"/><path class="cls-6" d="M536.76,2.16h20l39.48,63.6h.24V2.16h15.12v85h-19.2L552.12,21.48h-.24V87.12H536.76Z"/><path class="cls-7" d="M704,82.68a66.08,66.08,0,0,1-14.22,4.86,81.76,81.76,0,0,1-17.82,1.74A51.68,51.68,0,0,1,653.08,86a43,43,0,0,1-14.64-9.24,41.92,41.92,0,0,1-9.54-14.16,46.88,46.88,0,0,1-3.42-18.18A46,46,0,0,1,629,26a40.75,40.75,0,0,1,9.72-14,43,43,0,0,1,14.58-8.88A51.91,51.91,0,0,1,671.56,0a56.57,56.57,0,0,1,18.66,2.94,38,38,0,0,1,13.62,7.74L693.4,22a25.81,25.81,0,0,0-9.06-6.12,31.55,31.55,0,0,0-12.66-2.52,29.92,29.92,0,0,0-12.18,2.4,27.14,27.14,0,0,0-9.3,6.6,29.51,29.51,0,0,0-5.94,9.84,34.58,34.58,0,0,0-2.1,12.24,35.79,35.79,0,0,0,2.1,12.54,28.89,28.89,0,0,0,6,9.9,26.9,26.9,0,0,0,9.48,6.54,32.44,32.44,0,0,0,12.66,2.34,43.79,43.79,0,0,0,16.92-3V51.12H671.44V38.64H704Z"/><path class="cls-1" d="M715.44,2.16H732l16.44,62.4h.24L767.4,2.16H783l18.36,62.4h.24l16.8-62.4h16.08l-24.84,85H795L775.08,23.4h-.24L754.92,87.12H740.28Z"/><path class="cls-8" d="M913.44,55.92a35.13,35.13,0,0,1-2.64,13.86,31.36,31.36,0,0,1-7.2,10.5,31.86,31.86,0,0,1-10.8,6.66,40.46,40.46,0,0,1-27.12,0,32.23,32.23,0,0,1-10.86-6.66,29.71,29.71,0,0,1-7.2-10.5A35.48,35.48,0,0,1,845,55.92V2.16h15.12V55.32a28.54,28.54,0,0,0,1,7.38,17.8,17.8,0,0,0,3.18,6.54,16.24,16.24,0,0,0,5.88,4.68,23.7,23.7,0,0,0,18.12,0,16.59,16.59,0,0,0,5.88-4.68,18.45,18.45,0,0,0,3.18-6.54,29.43,29.43,0,0,0,1-7.38V2.16h15.12Z"/><path class="cls-9" d="M0,135.16H27.72a60.44,60.44,0,0,1,13.2,1.32A27.49,27.49,0,0,1,51,140.8a20.11,20.11,0,0,1,6.48,7.68,25.55,25.55,0,0,1,2.28,11.28,24.38,24.38,0,0,1-2.64,11.88A21.42,21.42,0,0,1,50,179.38a31.31,31.31,0,0,1-10.5,4.26A59.09,59.09,0,0,1,26.76,185H15.12v35.16H0Zm25.68,37.08a44.6,44.6,0,0,0,7.08-.54,19.57,19.57,0,0,0,6-1.92A11,11,0,0,0,43,166a11.27,11.27,0,0,0,1.56-6.24,10.05,10.05,0,0,0-5.7-9.72,17.73,17.73,0,0,0-5.88-1.74,53.66,53.66,0,0,0-6.78-.42h-11v24.36Z"/><path class="cls-10" d="M70.32,177.4A47.53,47.53,0,0,1,73.74,159a40.44,40.44,0,0,1,9.48-14,42,42,0,0,1,14.4-8.88A51.49,51.49,0,0,1,115.8,133a52.34,52.34,0,0,1,18.36,3.12A42.5,42.5,0,0,1,148.68,145a40,40,0,0,1,9.54,14,47.53,47.53,0,0,1,3.42,18.42,46.88,46.88,0,0,1-3.42,18.18,41.92,41.92,0,0,1-9.54,14.16A43.33,43.33,0,0,1,134.16,219a49.78,49.78,0,0,1-18.36,3.3A49,49,0,0,1,97.62,219a42.81,42.81,0,0,1-14.4-9.24,42.36,42.36,0,0,1-9.48-14.16A46.88,46.88,0,0,1,70.32,177.4Zm16.44,0a36,36,0,0,0,2.1,12.54,29.2,29.2,0,0,0,6,9.9,27.56,27.56,0,0,0,9.24,6.54,29.14,29.14,0,0,0,11.82,2.34,29.56,29.56,0,0,0,11.88-2.34,27.4,27.4,0,0,0,9.3-6.54,29.2,29.2,0,0,0,6-9.9,36,36,0,0,0,2.1-12.54,34.81,34.81,0,0,0-2.1-12.24,29.84,29.84,0,0,0-5.94-9.84,27.48,27.48,0,0,0-9.24-6.6,29.23,29.23,0,0,0-12-2.4,28.81,28.81,0,0,0-11.94,2.4,27.64,27.64,0,0,0-9.18,6.6,29.84,29.84,0,0,0-5.94,9.84A34.81,34.81,0,0,0,86.76,177.4Z"/><path class="cls-11" d="M177.48,135.16H207a53.23,53.23,0,0,1,11.64,1.26,29.93,29.93,0,0,1,10,4.14,21.6,21.6,0,0,1,7,7.56,22.88,22.88,0,0,1,2.64,11.4q0,9.24-5.22,15.06t-14.22,7.86l22.68,37.68H223.32l-19.68-36h-11v36H177.48ZM205,171.76a44.16,44.16,0,0,0,6.48-.48,18.71,18.71,0,0,0,5.82-1.8,11.37,11.37,0,0,0,4.26-3.78,10.94,10.94,0,0,0,1.68-6.3,9.69,9.69,0,0,0-1.56-5.7,11.61,11.61,0,0,0-4-3.54,16.56,16.56,0,0,0-5.46-1.8,38.32,38.32,0,0,0-5.94-.48H192.6v23.88Z"/><path class="cls-12" d="M270.88,148.36h-26v-13.2H312v13.2H286v71.76H270.88Z"/><path class="cls-13" d="M324.08,135.16h54.84v13.2H339.2v23.28h37.44v12.72H339.2v35.76H324.08Z"/><path class="cls-14" d="M388,177.4A47.53,47.53,0,0,1,391.38,159a40.44,40.44,0,0,1,9.48-14,42,42,0,0,1,14.4-8.88A51.49,51.49,0,0,1,433.44,133a52.34,52.34,0,0,1,18.36,3.12A42.5,42.5,0,0,1,466.32,145a40,40,0,0,1,9.54,14,47.53,47.53,0,0,1,3.42,18.42,46.88,46.88,0,0,1-3.42,18.18,41.92,41.92,0,0,1-9.54,14.16A43.33,43.33,0,0,1,451.8,219a49.78,49.78,0,0,1-18.36,3.3,49,49,0,0,1-18.18-3.3,42.81,42.81,0,0,1-14.4-9.24,42.36,42.36,0,0,1-9.48-14.16A46.88,46.88,0,0,1,388,177.4Zm16.44,0a36,36,0,0,0,2.1,12.54,29.2,29.2,0,0,0,6,9.9,27.56,27.56,0,0,0,9.24,6.54,29.14,29.14,0,0,0,11.82,2.34,29.56,29.56,0,0,0,11.88-2.34,27.4,27.4,0,0,0,9.3-6.54,29.2,29.2,0,0,0,6-9.9,36,36,0,0,0,2.1-12.54,34.81,34.81,0,0,0-2.1-12.24,29.84,29.84,0,0,0-5.94-9.84,27.48,27.48,0,0,0-9.24-6.6,29.23,29.23,0,0,0-12-2.4,28.81,28.81,0,0,0-11.94,2.4,27.64,27.64,0,0,0-9.18,6.6,29.84,29.84,0,0,0-5.94,9.84A34.81,34.81,0,0,0,404.4,177.4Z"/><path class="cls-15" d="M495.12,135.16h15.12v71.52h36.12v13.44H495.12Z"/><path class="cls-16" d="M560.64,135.16h15.12v85H560.64Z"/><path class="cls-17" d="M588.6,177.4A47.53,47.53,0,0,1,592,159a40.44,40.44,0,0,1,9.48-14,41.79,41.79,0,0,1,14.4-8.88A51.49,51.49,0,0,1,634.08,133a52.38,52.38,0,0,1,18.36,3.12A42.6,42.6,0,0,1,667,145a40,40,0,0,1,9.54,14,47.53,47.53,0,0,1,3.42,18.42,46.88,46.88,0,0,1-3.42,18.18A41.92,41.92,0,0,1,667,209.74,43.43,43.43,0,0,1,652.44,219a49.82,49.82,0,0,1-18.36,3.3A49,49,0,0,1,615.9,219,41.9,41.9,0,0,1,592,195.58,46.88,46.88,0,0,1,588.6,177.4Zm16.44,0a35.79,35.79,0,0,0,2.1,12.54,29,29,0,0,0,6,9.9,27.36,27.36,0,0,0,9.24,6.54,29.1,29.1,0,0,0,11.82,2.34,29.56,29.56,0,0,0,11.88-2.34,27.5,27.5,0,0,0,9.3-6.54,29.36,29.36,0,0,0,6-9.9,36.26,36.26,0,0,0,2.1-12.54,35,35,0,0,0-2.1-12.24,29.84,29.84,0,0,0-5.94-9.84,27.58,27.58,0,0,0-9.24-6.6,29.26,29.26,0,0,0-12-2.4,28.78,28.78,0,0,0-11.94,2.4,27.54,27.54,0,0,0-9.18,6.6,29.51,29.51,0,0,0-5.94,9.84A34.58,34.58,0,0,0,605,177.4Z"/></svg>