<svg xmlns="http://www.w3.org/2000/svg" xmlns:xlink="http://www.w3.org/1999/xlink" viewBox="0 0 607.13 295"><defs><style>.cls-1{fill:url(#未命名漸層_15);}.cls-2{fill:url(#未命名漸層_15-2);}.cls-3{fill:url(#未命名漸層_15-3);}.cls-4{fill:url(#未命名漸層_15-4);}</style><linearGradient id="未命名漸層_15" x1="-83.77" y1="99.16" x2="453.22" y2="498.93" gradientUnits="userSpaceOnUse"><stop offset="0" stop-color="#3dc4ed"/><stop offset="1" stop-color="#1e55fa"/></linearGradient><linearGradient id="未命名漸層_15-2" x1="159.38" y1="-227.45" x2="696.37" y2="172.31" xlink:href="#未命名漸層_15"/><linearGradient id="未命名漸層_15-3" x1="95.78" y1="-142.02" x2="632.77" y2="257.74" xlink:href="#未命名漸層_15"/><linearGradient id="未命名漸層_15-4" x1="15.14" y1="-33.7" x2="552.13" y2="366.06" xlink:href="#未命名漸層_15"/></defs><title>工作區域 116</title><g id="圖層_3" data-name="圖層 3"><path class="cls-1" d="M91.88,108.49a1,1,0,0,0-1.74,0L3.25,259A24,24,0,0,0,24,295H91l54.27-94h0Z"/><path class="cls-2" d="M596.32,28.28A60,60,0,0,0,545.39,0H458.18a1,1,0,0,0-.49,1.87c7.18,4.13,20.83,12.86,36.2,36.93h0L552,139.44a1,1,0,0,0,1.73,0l53.4-92.5S596.67,28.85,596.32,28.28Z"/><path class="cls-3" d="M419.53,30a60,60,0,0,0-52-30H280.36a1,1,0,0,0-.5,1.87C287.05,6,300.7,14.73,316.07,38.8l59,102.2H481.88a1,1,0,0,0,.87-1.5Z"/><path class="cls-4" d="M551.74,259l-33.49-58H323.11L224.38,30a60,60,0,0,0-52-30H85.21a1,1,0,0,0-.49,1.87C91.91,6,105.55,14.73,120.92,38.8L268.84,295H531A24,24,0,0,0,551.74,259Z"/></g></svg>